<?xml version="1.0" encoding="UTF-8" standalone="no"?>
<!--
   Original emoji by Emily Jäger on https://openmoji.org/library/emoji-1F92B/ .
   This work is licensed under a
   <a rel="license" href="http://creativecommons.org/licenses/by/4.0/">
   Creative Commons Attribution 4.0 International License</a>.
-->
<svg
   id="emoji"
   viewBox="0 0 72 72"
   version="1.1"
   sodipodi:docname="oxcabe-favicon.svg"
   inkscape:version="1.1.2 (0a00cf5339, 2022-02-04)"
   xmlns:inkscape="http://www.inkscape.org/namespaces/inkscape"
   xmlns:sodipodi="http://sodipodi.sourceforge.net/DTD/sodipodi-0.dtd"
   xmlns="http://www.w3.org/2000/svg"
   xmlns:svg="http://www.w3.org/2000/svg">
  <defs
     id="defs38">
    <inkscape:path-effect
       effect="mirror_symmetry"
       start_point="35.770129,1.6874937"
       end_point="35.770129,39.218056"
       center_point="35.770129,20.452775"
       id="path-effect10303"
       is_visible="true"
       lpeversion="1.1"
       mode="free"
       discard_orig_path="false"
       fuse_paths="false"
       oposite_fuse="false"
       split_items="false"
       split_open="false" />
    <inkscape:path-effect
       effect="mirror_symmetry"
       start_point="36,0"
       end_point="34.591801,33.986328"
       center_point="34.591801,27.441406"
       id="path-effect6769"
       is_visible="true"
       lpeversion="1.1"
       mode="vertical"
       discard_orig_path="false"
       fuse_paths="false"
       oposite_fuse="true"
       split_items="true"
       split_open="false" />
  </defs>
  <sodipodi:namedview
     id="namedview36"
     pagecolor="#ffffff"
     bordercolor="#666666"
     borderopacity="1.0"
     inkscape:pageshadow="2"
     inkscape:pageopacity="0.0"
     inkscape:pagecheckerboard="0"
     showgrid="false"
     inkscape:zoom="11.313709"
     inkscape:cx="34.294679"
     inkscape:cy="37.1673"
     inkscape:window-width="1920"
     inkscape:window-height="1048"
     inkscape:window-x="0"
     inkscape:window-y="32"
     inkscape:window-maximized="1"
     inkscape:current-layer="layer3" />
  <g
     id="hair"
     transform="translate(0,4.4841537)" />
  <g
     id="skin"
     transform="translate(0,4.4841537)" />
  <g
     id="skin-shadow"
     transform="translate(0,4.4841537)" />
  <g
     inkscape:groupmode="layer"
     id="layer1"
     inkscape:label="Base emoji"
     style="display:inline">
    <g
       id="color"
       transform="translate(0,4.4841537)">
      <circle
         cx="36"
         cy="35.799999"
         r="23"
         fill="none"
         stroke="#fcea2b"
         stroke-miterlimit="10"
         stroke-width="1.8"
         id="circle2" />
      <path
         fill="#fcea2b"
         d="m 46.8,56.3 c 11.3,-6 15.7,-20.2 9.7,-31.5 -6,-11.3 -20,-15.5 -31.3,-9.5 -11.3,6 -15.5,20 -9.5,31.3 2.3,4.2 5.8,7.7 10.1,9.8 0,1.6 0.7,3.2 1.8,4.4 1.4,1.6 8.5,3.3 12.2,-0.2 1.1,-1 7.3,-4.2 7,-4.3 z"
         id="path4" />
    </g>
    <g
       id="line"
       transform="translate(0,4.4841537)">
      <path
         fill="none"
         stroke="#000000"
         stroke-linecap="round"
         stroke-linejoin="round"
         stroke-width="2"
         d="M 51.5,52.8 C 60.9,44.2 61.6,29.7 53,20.3 44.4,10.9 29.9,10.2 20.5,18.8 11.1,27.4 10.4,41.9 19,51.3 c 0.9,0.9 1.8,1.8 2.8,2.6"
         id="path10" />
      <path
         fill="none"
         stroke="#000000"
         stroke-linecap="round"
         stroke-linejoin="round"
         stroke-width="2"
         d="m 21.4,23.6 c 0.7,-1.4 1.9,-2.4 3.3,-2.9 C 26,20 27.6,19.9 29,20.3"
         id="path12" />
      <path
         fill="none"
         stroke="#000000"
         stroke-linecap="round"
         stroke-linejoin="round"
         stroke-width="2"
         d="m 50.7,23.6 c -1.5,-2.7 -4.6,-4 -7.6,-3.3"
         id="path14" />
      <path
         fill="none"
         stroke="#000000"
         stroke-linecap="round"
         stroke-linejoin="round"
         stroke-width="2"
         d="M 34,41.5 C 32.6,41.3 31.2,40.8 30,40"
         id="path16" />
      <path
         fill="none"
         stroke="#000000"
         stroke-linecap="round"
         stroke-linejoin="round"
         stroke-width="2"
         d="m 42.1,40 c -1.3,0.7 -2.7,1.2 -4.2,1.5"
         id="path18" />
      <path
         fill="none"
         stroke="#000000"
         stroke-linecap="round"
         stroke-linejoin="round"
         stroke-width="2"
         d="m 37.8,38.6 c 0,-1 -0.9,-1.9 -1.9,-1.9 -1,0 -1.9,0.9 -1.9,1.9"
         id="path20" />
      <line
         x1="34"
         x2="34"
         y1="47.400002"
         y2="38.599998"
         fill="none"
         stroke="#000000"
         stroke-linecap="round"
         stroke-linejoin="round"
         stroke-width="2"
         id="line22" />
      <line
         x1="37.799999"
         x2="37.799999"
         y1="38.599998"
         y2="47.5"
         fill="none"
         stroke="#000000"
         stroke-linecap="round"
         stroke-linejoin="round"
         stroke-width="2"
         id="line24" />
      <path
         fill="none"
         stroke="#000000"
         stroke-miterlimit="10"
         stroke-width="2"
         d="m 37.2,47.4 c 1.7,0 3,1.3 3,3 v 0 c 0,0.6 0,1.8 0,1.8 0.3,0 3,0 4.1,0 1.3,-0.1 2.5,0.7 2.8,2 0.3,1.3 -0.3,2.6 -1.4,3.2 -0.5,0.3 -1.1,0.6 -1.6,0.9 -2,1.1 -4.1,2.2 -6.2,3.3 -1.9,1 -4,1.4 -6.1,1 -3.6,-0.6 -6,-4 -5.4,-7.7 0.2,-1.5 0.5,-3 1,-4.4 0.6,-1.8 2.3,-3.1 4.2,-3.1 z"
         id="path26" />
      <path
         d="m 30,27.8 c 0,1.7 -1.3,3 -3,3 -1.7,0 -3,-1.3 -3,-3 0,-1.7 1.3,-3 3,-3 v 0 c 1.6,0 3,1.3 3,2.9 0,0 0,0.1 0,0.1"
         id="path28" />
      <path
         d="m 48,27.8 c 0,1.7 -1.3,3 -3,3 -1.7,0 -3,-1.3 -3,-3 0,-1.7 1.3,-3 3,-3 v 0 c 1.6,0 3,1.3 3,2.9 0,0 0,0.1 0,0.1"
         id="path30" />
      <path
         fill="none"
         stroke="#000000"
         stroke-linecap="round"
         stroke-linejoin="round"
         stroke-miterlimit="10"
         stroke-width="2"
         d="m 36.2,51.8 c -1.3,0 -2,0.7 -2.5,1.5 -0.6,0.9 0,2.2 1,2.2 H 39 c 0.7,0 1.2,-0.6 1.2,-1.4 v -1.8 -0.1"
         id="path32" />
    </g>
  </g>
  <g
     inkscape:groupmode="layer"
     id="layer2"
     inkscape:label="Glasses"
     style="display:inline">
    <g
       id="path895"
       transform="translate(0,4.4841537)">
      <path
         id="path9358"
         style="color:#000000;fill:#000033;stroke-linejoin:round;-inkscape-stroke:none"
         d="m 26.765625,21.011719 c -1.040282,0 -2.219611,0.368734 -3.34375,0.769531 -1.120249,0.39941 -2.185435,0.839876 -2.849609,1.021484 -0.699486,0.117676 -1.37635,0.235699 -2.06836,0.339844 A 0.50005,0.50005 0 0 0 18.078125,23.625 l -0.0293,1.191406 a 0.50005,0.50005 0 0 0 0.166016,0.384766 c 0.213581,0.190954 0.306897,0.542429 0.310547,1.070312 0.0036,0.527884 -0.08594,1.16582 -0.08594,1.785157 0,3.989374 3.832565,7.044922 8.326172,7.044921 4.493607,0 8.326172,-3.055547 8.326172,-7.044921 0,-1.14442 -0.413195,-2.133272 -0.910156,-3.056641 0.168178,-0.03707 0.185674,-0.04394 0.402343,-0.08789 0.547287,-0.111019 1.210007,-0.215759 1.414063,-0.216797 0.178532,2.12e-4 0.75833,0.08634 1.275391,0.1875 0.239597,0.04687 0.335335,0.07177 0.533203,0.115235 -0.533293,0.92625 -0.898438,1.944304 -0.898438,3.058594 0,3.989374 3.832565,7.044921 8.326172,7.044921 4.493607,0 8.326172,-3.055547 8.326172,-7.044921 0,-0.619337 -0.08959,-1.257273 -0.08594,-1.785157 0.0037,-0.527883 0.09697,-0.879358 0.310547,-1.070312 a 0.50005,0.50005 0 0 0 0.166016,-0.384766 L 53.921875,23.625 a 0.50005,0.50005 0 0 0 -0.425781,-0.482422 c -0.69201,-0.104145 -1.368874,-0.222168 -2.06836,-0.339844 -0.664174,-0.181608 -1.72936,-0.622074 -2.849609,-1.021484 -1.124139,-0.400797 -2.303468,-0.769531 -3.34375,-0.769531 -2.100054,0 -4.041902,0.660846 -5.527344,1.773437 0.07083,-0.05305 0.0349,-0.0229 0,-0.0078 -0.0349,0.01507 -0.09055,0.03702 -0.160156,0.06055 -0.139212,0.04706 -0.334624,0.103058 -0.558594,0.144531 -0.447939,0.08295 -1.008769,0.107529 -1.496093,-0.03906 C 37.002715,22.796119 36.637587,22.72661 36.386719,22.695312 36.156761,22.666605 36.02564,22.674772 36,22.675781 c -0.02564,-0.001 -0.156761,-0.0092 -0.386719,0.01953 -0.250869,0.0313 -0.615991,0.100807 -1.105469,0.248047 -0.487323,0.146595 -1.048154,0.122012 -1.496093,0.03906 -0.22397,-0.04147 -0.419382,-0.09747 -0.558594,-0.144531 -0.06961,-0.02353 -0.125257,-0.04547 -0.160156,-0.06055 -0.0349,-0.01508 -0.07083,-0.04523 0,0.0078 C 30.807527,21.672546 28.865679,21.0117 26.765625,21.0117 Z m 0,2 c 3.601904,0 6.326172,2.366453 6.326172,5.044922 0,2.67847 -2.724268,5.044923 -6.326172,5.044921 -3.601904,0 -6.326172,-2.366451 -6.326172,-5.044921 0,-2.678469 2.724268,-5.044922 6.326172,-5.044922 z m 18.46875,0 c 3.601904,0 6.326172,2.366453 6.326172,5.044922 0,2.67847 -2.724268,5.044922 -6.326172,5.044921 -3.601904,10e-7 -6.326172,-2.366451 -6.326172,-5.044921 0,-2.678469 2.724268,-5.044922 6.326172,-5.044922 z" />
    </g>
  </g>
  <g
     inkscape:groupmode="layer"
     id="layer3"
     inkscape:label="Hair"
     style="display:inline">
    <path
       style="fill:#060001;fill-opacity:1;stroke:none;stroke-width:0.968031px;stroke-linecap:butt;stroke-linejoin:miter;stroke-opacity:1"
       d="m 35.771554,13.397848 c -12.519931,1.196618 -7.93579,3.884308 -11.554965,8.679794 -7.7073,11.559163 -11.316796,12.003315 -11.316796,12.003315 0,0 -6.042013,-4.32777 -1.611608,-20.473085 2.258564,-8.2306745 9.487766,-11.5306873 15.629874,-11.7040601 5.408637,-0.1526693 8.85271,2.3917864 8.852856,4.0814522 z m -0.0029,0 c 12.519931,1.196618 7.93579,3.884308 11.554965,8.679794 7.7073,11.559163 11.316796,12.003315 11.316796,12.003315 0,0 6.042013,-4.32777 1.611608,-20.473085 C 57.993509,5.3771975 50.764307,2.0771847 44.622199,1.9038119 39.213562,1.7511426 35.769489,4.2955983 35.769343,5.9852641 Z"
       id="path9209"
       inkscape:path-effect="#path-effect10303"
       inkscape:original-d="m 35.771554,13.397848 c -12.519931,1.196618 -7.93579,3.884308 -11.554965,8.679794 -7.7073,11.559163 -11.316796,12.003315 -11.316796,12.003315 0,0 -6.042013,-4.32777 -1.611608,-20.473085 2.258564,-8.2306745 9.487766,-11.5306873 15.629874,-11.7040601 5.408637,-0.1526693 8.85271,2.3917864 8.852856,4.0814522 z"
       transform="matrix(1.0671406,0,0,1,-2.4363214,4.8664927)"
       sodipodi:nodetypes="cccsssc" />
  </g>
</svg>
